<svg xmlns="http://www.w3.org/2000/svg" version="1.1" xmlns:xlink="http://www.w3.org/1999/xlink" xmlns:svgjs="http://svgjs.dev/svgjs" width="1000" height="623" viewBox="0 0 1000 623"><g transform="matrix(1,0,0,1,-0.6060606060606233,0.2522267206477409)"><svg viewBox="0 0 396 247" data-background-color="#010536" preserveAspectRatio="xMidYMid meet" height="623" width="1000" xmlns="http://www.w3.org/2000/svg" xmlns:xlink="http://www.w3.org/1999/xlink"><defs></defs><g id="tight-bounds" transform="matrix(1,0,0,1,0.2400000000000091,-0.09999999999999432)"><svg viewBox="0 0 395.52 247.2" height="247.2" width="395.52"><g><svg></svg></g><g><svg viewBox="0 0 395.52 247.2" height="247.2" width="395.52"><g><path d="M0 0" fill="#fbfbf8" data-fill-palette-color="tertiary"></path></g><g transform="matrix(1,0,0,1,126.18913326160242,37.08)"><svg viewBox="0 0 143.14173347679514 173.04" height="173.04" width="143.14173347679514"><g><svg viewBox="0 0 372.64217180550696 450.4765999615212" height="173.04" width="143.14173347679514"><g transform="matrix(1,0,0,1,0,277.43659996152115)"><svg viewBox="0 0 372.64217180550696 173.04" height="173.04" width="372.64217180550696"><g><svg viewBox="0 0 372.64217180550696 173.04" height="173.04" width="372.64217180550696"><g><svg viewBox="0 0 372.64217180550696 173.04" height="173.04" width="372.64217180550696"><g transform="matrix(1,0,0,1,0,0)"><svg width="372.64217180550696" viewBox="84.34 -35.6 168.34 74.68" height="173.04" data-palette-color="#fbfbf8"><svg></svg><svg></svg><g class="undefined-text-0" data-fill-palette-color="primary" id="text-0"><path transform="translate(135.46,0)" d="M19.56-35.6v35.6h-7.06v-27.2l-8.42 2.62v-5.74l14.72-5.28zM31.76-3.47v0c0-1.12 0.38-2.03 1.14-2.73 0.753-0.7 1.7-1.05 2.84-1.05v0c1.16 0 2.117 0.35 2.87 1.05 0.76 0.7 1.14 1.61 1.14 2.73v0c0 1.107-0.377 2.007-1.13 2.7-0.747 0.693-1.707 1.04-2.88 1.04v0c-1.153 0-2.103-0.347-2.85-1.04-0.753-0.693-1.13-1.593-1.13-2.7zM52.29-16.09l-5.61-1.39 2.05-18.07h19.92v5.89h-14.13l-0.88 7.64c1.673-0.893 3.453-1.34 5.34-1.34v0c3.387 0 6.04 1.05 7.96 3.15 1.92 2.093 2.88 5.03 2.88 8.81v0c0 2.293-0.483 4.347-1.45 6.16-0.967 1.82-2.353 3.23-4.16 4.23-1.807 1-3.94 1.5-6.4 1.5v0c-2.147 0-4.14-0.437-5.98-1.31-1.84-0.867-3.293-2.09-4.36-3.67-1.067-1.58-1.63-3.38-1.69-5.4v0h6.98c0.147 1.48 0.663 2.633 1.55 3.46 0.887 0.82 2.047 1.23 3.48 1.23v0c1.593 0 2.82-0.573 3.68-1.72 0.867-1.147 1.3-2.77 1.3-4.87v0c0-2.02-0.497-3.567-1.49-4.64-0.993-1.073-2.4-1.61-4.22-1.61v0c-1.68 0-3.04 0.44-4.08 1.32v0z" fill="#fbfbf8" fill-rule="nonzero" stroke="none" stroke-width="1" stroke-linecap="butt" stroke-linejoin="miter" stroke-miterlimit="10" stroke-dasharray="" stroke-dashoffset="0" font-family="none" font-weight="none" font-size="none" text-anchor="none" style="mix-blend-mode: normal" data-fill-palette-color="primary" opacity="1"></path><path transform="translate(84.17,39.08)" d="M25.71 0l-2.47-7.32h-12.84l-2.44 7.32h-7.79l13.23-35.55h6.79l13.31 35.55zM16.8-26.56l-4.42 13.3h8.88zM47.83 0h-11.01v-35.55h10.93c3.127 0 5.923 0.703 8.39 2.11 2.467 1.413 4.39 3.417 5.77 6.01 1.387 2.593 2.08 5.543 2.08 8.85v0 1.64c0 3.3-0.68 6.237-2.04 8.81-1.36 2.573-3.277 4.567-5.75 5.98-2.473 1.42-5.263 2.137-8.37 2.15zM47.75-29.61h-3.61v23.73h3.54c2.867 0 5.057-0.937 6.57-2.81 1.513-1.873 2.287-4.55 2.32-8.03v0-1.88c0-3.613-0.75-6.353-2.25-8.22-1.493-1.86-3.683-2.79-6.57-2.79zM91.33 0l-2.46-7.32h-12.84l-2.45 7.32h-7.78l13.23-35.55h6.79l13.3 35.55zM82.42-26.56l-4.42 13.3h8.89zM131.35-35.55v35.55h-7.33l-14.25-23.39v23.39h-7.33v-35.55h7.33l14.28 23.44v-23.44zM160.72 0l-2.47-7.32h-12.84l-2.44 7.32h-7.79l13.23-35.55h6.79l13.31 35.55zM151.81-26.56l-4.42 13.3h8.88z" fill="#fbfbf8" fill-rule="nonzero" stroke="none" stroke-width="1" stroke-linecap="butt" stroke-linejoin="miter" stroke-miterlimit="10" stroke-dasharray="" stroke-dashoffset="0" font-family="none" font-weight="none" font-size="none" text-anchor="none" style="mix-blend-mode: normal" data-fill-palette-color="primary" opacity="1"></path></g></svg></g></svg></g></svg></g></svg></g><g transform="matrix(1,0,0,1,71.17465481485183,0)"><svg viewBox="0 0 230.2928621758033 230.2928621758033" height="230.2928621758033" width="230.2928621758033"><g><svg viewBox="0 0 230.2928621758033 230.2928621758033" height="230.2928621758033" width="230.2928621758033"><g transform="matrix(1,0,0,1,60.86588292011181,95.65932119801035)"><svg viewBox="0 0 108.56109633557968 38.97421977978261" height="38.97421977978261" width="108.56109633557968"><g><svg xmlns="http://www.w3.org/2000/svg" viewBox="32.944 175.99908843144567 445.676 160.00091156855433" x="0" y="0" height="38.97421977978261" width="108.56109633557968" class="icon-qb-0" data-fill-palette-color="accent" id="qb-0"><path d="M392 304h16V288a8 8 0 0 0-2.343-5.657L379.314 256H356.686L392 291.313Z" fill="#ffffff" data-fill-palette-color="accent"></path><path d="M328.411 280.3a5.765 5.765 0 0 1 7.589 5.47v12.468a5.765 5.765 0 0 1-7.589 5.47L314.12 298.94A57.414 57.414 0 0 0 304 296.56v-9.12a57.414 57.414 0 0 0 10.12-2.38ZM400 336a8 8 0 1 1 8-8A8.009 8.009 0 0 1 400 336ZM176 176h14.243l24.027 11.089-22.452 0.775ZM32.944 224l4.461-8.923L64 209.759v28.482l-26.595-5.318Zm43.211 56H62.13l14.4-24H95.355ZM216 336a8 8 0 1 1 8-8A8.009 8.009 0 0 1 216 336Zm1.721-31.932c-0.569-0.04-1.142-0.068-1.721-0.068s-1.152 0.028-1.721 0.068L211.627 280.2l9.224-4.305ZM174.226 280H155.473l62.857-40h41.609ZM440 264a8 8 0 0 1-16 0v-8h16Zm36.057-29.471A7.989 7.989 0 0 1 468.468 240H297.773l1.61-0.751A8 8 0 0 0 296 224H216a8 8 0 0 0-4.295 1.251L188.528 240H80V207.729l209.312-7.218a99.345 99.345 0 0 0 31.517-6.278l34.44-12.916a83.533 83.533 0 0 1 80.608 12.277L478.62 226.84Z" fill="#ffffff" data-fill-palette-color="accent"></path><rect x="304" y="256" width="16" height="16" fill="#ffffff" data-fill-palette-color="accent"></rect></svg></g></svg></g><path d="M7.924 69.12L41.794 80.036 39.631 86.746 13.756 78.407 13.652 87.22 8.196 85.462 7.693 69.837ZM43.717 70.807V70.807C42.775 70.196 42.214 69.382 42.033 68.367 41.863 67.35 42.087 66.365 42.706 65.411V65.411C43.336 64.44 44.149 63.829 45.144 63.577 46.148 63.323 47.121 63.502 48.063 64.113V64.113C48.987 64.713 49.539 65.516 49.717 66.522 49.886 67.529 49.651 68.525 49.013 69.507V69.507C48.387 70.472 47.579 71.082 46.59 71.338 45.599 71.584 44.641 71.407 43.717 70.807ZM46.819 47.869L41.777 50.709 30.888 36.163 45.382 22.505 49.414 26.783 39.129 36.475 43.726 42.635C44.337 40.832 45.328 39.286 46.698 37.994V37.994C49.165 35.67 51.815 34.614 54.651 34.827 57.486 35.039 60.197 36.518 62.784 39.264V39.264C64.358 40.934 65.416 42.763 65.959 44.752 66.502 46.732 66.458 48.704 65.827 50.668 65.202 52.638 63.993 54.467 62.201 56.155V56.155C60.638 57.628 58.89 58.676 56.958 59.299 55.02 59.928 53.123 60.034 51.265 59.619 49.403 59.198 47.758 58.276 46.331 56.853V56.853L51.408 52.068C52.529 53.043 53.693 53.527 54.902 53.518 56.116 53.505 57.243 53.008 58.284 52.028V52.028C59.446 50.933 59.947 49.675 59.787 48.254 59.627 46.824 58.827 45.345 57.388 43.817V43.817C56.006 42.35 54.586 41.566 53.129 41.463 51.667 41.366 50.273 41.941 48.949 43.189V43.189C47.731 44.337 47.042 45.589 46.884 46.946V46.946ZM102.587 36.871L98.251 30.475 85.883 33.904 85.491 41.611 77.982 43.693 81.239 5.917 87.78 4.103 110.086 34.792ZM86.902 13.659L86.204 27.66 94.762 25.288ZM120.005 36.07L109.006 35.482 110.901 0 121.827 0.584C124.946 0.75 127.698 1.603 130.081 3.14 132.471 4.672 134.286 6.773 135.526 9.444 136.767 12.108 137.299 15.087 137.123 18.381V18.381L137.035 20.021C136.859 23.314 136.024 26.21 134.529 28.707 133.041 31.204 131.023 33.094 128.475 34.375 125.928 35.657 123.104 36.222 120.005 36.07ZM121.51 6.506L117.896 6.313 116.631 30.003 120.172 30.192C123.027 30.344 125.26 29.525 126.871 27.732 128.482 25.947 129.397 23.317 129.618 19.844V19.844L129.718 17.964C129.911 14.357 129.308 11.584 127.911 9.645 126.52 7.706 124.386 6.66 121.51 6.506ZM156.232 47.265L157.004 39.576 145.312 34.282 140.071 39.947 132.972 36.732 159.684 9.822 165.868 12.622 163.321 50.475ZM159.069 19.395L149.559 29.695 157.649 33.358ZM207.361 44.321L182.928 70.122 177.612 65.087 183.335 38.309 167.26 55.284 161.943 50.249 186.376 24.449 191.692 29.484 185.948 56.314 202.059 39.301ZM191.757 92.657L197.486 87.472 192.364 75.703 184.678 76.391 181.568 69.245 219.43 67.199 222.139 73.423 194.863 99.793ZM212.553 73.888L198.592 75.149 202.135 83.292ZM50.528 156.554L16.658 167.47 14.496 160.759 40.371 152.42 35.309 145.205 40.765 143.446 50.297 155.837ZM27.376 179.208V179.208C28.317 178.596 29.289 178.415 30.289 178.663 31.288 178.921 32.097 179.526 32.716 180.48V180.48C33.347 181.45 33.574 182.442 33.4 183.453 33.223 184.474 32.664 185.29 31.722 185.902V185.902C30.798 186.502 29.84 186.679 28.849 186.433 27.86 186.177 27.046 185.558 26.408 184.575V184.575C25.782 183.61 25.553 182.624 25.722 181.616 25.9 180.611 26.452 179.808 27.376 179.208ZM50.774 187.338L47.64 182.474 61.514 170.74 76.009 184.399 71.977 188.677 61.693 178.985 55.816 183.94C57.652 184.443 59.254 185.34 60.625 186.631V186.631C63.091 188.956 64.302 191.539 64.259 194.382 64.215 197.225 62.899 200.019 60.312 202.765V202.765C58.738 204.434 56.975 205.599 55.021 206.259 53.077 206.919 51.106 206.992 49.108 206.479 47.105 205.971 45.208 204.873 43.416 203.185V203.185C41.853 201.712 40.703 200.029 39.966 198.137 39.224 196.24 39.005 194.352 39.309 192.474 39.618 190.59 40.441 188.893 41.778 187.383V187.383L46.855 192.168C45.948 193.345 45.535 194.536 45.615 195.742 45.7 196.953 46.263 198.049 47.303 199.029V199.029C48.465 200.124 49.751 200.55 51.159 200.306 52.578 200.062 54.007 199.176 55.446 197.648V197.648C56.828 196.181 57.527 194.718 57.543 193.257 57.554 191.791 56.897 190.435 55.572 189.186V189.186C54.354 188.039 53.064 187.426 51.7 187.348V187.348ZM95.53 227.982L95.108 220.266 82.74 216.837 78.435 223.242 70.926 221.16 93.171 190.454 99.713 192.268 103.03 230.061ZM94.039 200.008L86.23 211.65 94.788 214.023ZM121.413 229.705L110.414 230.293 108.519 194.81 119.445 194.227C122.564 194.06 125.391 194.614 127.924 195.89 130.464 197.158 132.493 199.054 134.01 201.577 135.527 204.094 136.374 206.999 136.55 210.293V210.293L136.637 211.933C136.813 215.227 136.291 218.195 135.07 220.837 133.857 223.478 132.052 225.572 129.655 227.118 127.258 228.663 124.511 229.526 121.413 229.705ZM119.761 200.149L116.147 200.342 117.412 224.032 120.953 223.843C123.808 223.69 125.941 222.637 127.352 220.683 128.764 218.736 129.394 216.025 129.243 212.548V212.548L129.143 210.668C128.95 207.061 128.056 204.368 126.459 202.588 124.87 200.809 122.637 199.996 119.761 200.149ZM167.125 216.197L161.856 210.545 150.164 215.839 150.965 223.515 143.866 226.729 141.262 188.902 147.446 186.101 174.215 212.986ZM148.052 195.679L149.519 209.621 157.609 205.958ZM176.654 162.658L201.086 188.458 195.77 193.493 169.343 186.321 185.418 203.296 180.102 208.33 155.669 182.53 160.985 177.496 187.464 184.691 171.353 167.678ZM215.972 157.286L208.273 156.627 203.151 168.396 208.893 173.552 205.783 180.698 178.482 154.385 181.191 148.161 219.077 150.15ZM188.063 154.859L198.502 164.216 202.046 156.073ZM7.233 119.702C7.233 112.195 13.319 106.11 20.826 106.11 28.333 106.11 34.419 112.195 34.419 119.702 34.419 127.209 28.333 133.295 20.826 133.295 13.319 133.295 7.233 127.209 7.233 119.702ZM195.874 119.702C195.874 112.195 201.96 106.11 209.467 106.11 216.974 106.11 223.06 112.195 223.06 119.702 223.06 127.209 216.974 133.295 209.467 133.295 201.96 133.295 195.874 127.209 195.874 119.702Z" fill="#ffffff" data-fill-palette-color="accent"></path></svg></g></svg></g><g></g></svg></g></svg></g></svg></g></svg><rect width="395.52" height="247.2" fill="none" stroke="none" visibility="hidden"></rect></g></svg></g></svg>