<svg xmlns="http://www.w3.org/2000/svg" version="1.1" xmlns:xlink="http://www.w3.org/1999/xlink" xmlns:svgjs="http://svgjs.dev/svgjs" width="1000" height="1000" viewBox="0 0 1000 1000"><rect width="1000" height="1000" fill="#070751"></rect><g transform="matrix(0.7,0,0,0.7,149.57575757575756,282.1265587044535)"><svg viewBox="0 0 396 247" data-background-color="#070751" preserveAspectRatio="xMidYMid meet" height="623" width="1000" xmlns="http://www.w3.org/2000/svg" xmlns:xlink="http://www.w3.org/1999/xlink"><defs></defs><g id="tight-bounds" transform="matrix(1,0,0,1,0.2400000000000091,-0.09999999999999432)"><svg viewBox="0 0 395.52 247.2" height="247.2" width="395.52"><g><svg></svg></g><g><svg viewBox="0 0 395.52 247.2" height="247.2" width="395.52"><g><path d="M0 0" fill="#000000" data-fill-palette-color="tertiary"></path></g><g transform="matrix(1,0,0,1,126.18913326160242,37.08)"><svg viewBox="0 0 143.14173347679514 173.04" height="173.04" width="143.14173347679514"><g><svg viewBox="0 0 372.64217180550696 450.4765999615212" height="173.04" width="143.14173347679514"><g transform="matrix(1,0,0,1,0,277.43659996152115)"><svg viewBox="0 0 372.64217180550696 173.04" height="173.04" width="372.64217180550696"><g><svg viewBox="0 0 372.64217180550696 173.04" height="173.04" width="372.64217180550696"><g><svg viewBox="0 0 372.64217180550696 173.04" height="173.04" width="372.64217180550696"><g transform="matrix(1,0,0,1,0,0)"><svg width="372.64217180550696" viewBox="84.3399887084961 -35.60000228881836 168.33999633789062 74.68000793457031" height="173.04" data-palette-color="#620e0e"><svg></svg><svg></svg><g class="undefined-text-0" data-fill-palette-color="primary" id="text-0"><path d="M155.02-35.6v35.6h-7.06v-27.2l-8.42 2.62v-5.74l14.72-5.28zM167.22-3.47v0c0-1.12 0.38-2.03 1.14-2.73 0.753-0.7 1.7-1.05 2.84-1.05v0c1.16 0 2.117 0.35 2.87 1.05 0.76 0.7 1.14 1.61 1.14 2.73v0c0 1.107-0.377 2.007-1.13 2.7-0.747 0.693-1.707 1.04-2.88 1.04v0c-1.153 0-2.103-0.347-2.85-1.04-0.753-0.693-1.13-1.593-1.13-2.7zM187.75-16.09l-5.61-1.39 2.05-18.07h19.92v5.89h-14.13l-0.88 7.64c1.673-0.893 3.453-1.34 5.34-1.34v0c3.387 0 6.04 1.05 7.96 3.15 1.92 2.093 2.88 5.03 2.88 8.81v0c0 2.293-0.483 4.347-1.45 6.16-0.967 1.82-2.353 3.23-4.16 4.23-1.807 1-3.94 1.5-6.4 1.5v0c-2.147 0-4.14-0.437-5.98-1.31-1.84-0.867-3.293-2.09-4.36-3.67-1.067-1.58-1.63-3.38-1.69-5.4v0h6.98c0.147 1.48 0.663 2.633 1.55 3.46 0.887 0.82 2.047 1.23 3.48 1.23v0c1.593 0 2.82-0.573 3.68-1.72 0.867-1.147 1.3-2.77 1.3-4.87v0c0-2.02-0.497-3.567-1.49-4.64-0.993-1.073-2.4-1.61-4.22-1.61v0c-1.68 0-3.04 0.44-4.08 1.32v0z" data-fill-palette-color="primary" fill="#620e0e" opacity="1"></path><path d="M109.88 39.08l-2.47-7.32h-12.84l-2.44 7.32h-7.79l13.23-35.55h6.79l13.31 35.55zM100.97 12.52l-4.42 13.3h8.88zM132 39.08h-11.01v-35.55h10.93c3.127 0 5.923 0.703 8.39 2.11 2.467 1.413 4.39 3.417 5.77 6.01 1.387 2.593 2.08 5.543 2.08 8.85v0 1.64c0 3.3-0.68 6.237-2.04 8.81-1.36 2.573-3.277 4.567-5.75 5.98-2.473 1.42-5.263 2.137-8.37 2.15zM131.92 9.47h-3.61v23.73h3.54c2.867 0 5.057-0.937 6.57-2.81 1.513-1.873 2.287-4.55 2.32-8.03v0-1.88c0-3.613-0.75-6.353-2.25-8.22-1.493-1.86-3.683-2.79-6.57-2.79zM175.5 39.08l-2.46-7.32h-12.84l-2.45 7.32h-7.78l13.23-35.55h6.79l13.3 35.55zM166.59 12.52l-4.42 13.3h8.89zM215.52 3.53v35.55h-7.33l-14.25-23.39v23.39h-7.33v-35.55h7.33l14.28 23.44v-23.44zM244.89 39.08l-2.47-7.32h-12.84l-2.44 7.32h-7.79l13.23-35.55h6.79l13.31 35.55zM235.98 12.52l-4.42 13.3h8.88z" data-fill-palette-color="primary" fill="#620e0e" opacity="1"></path></g></svg></g></svg></g></svg></g></svg></g><g transform="matrix(1,0,0,1,71.17465481485183,0)"><svg viewBox="0 0 230.2928621758033 230.2928621758033" height="230.2928621758033" width="230.2928621758033"><g><svg viewBox="0 0 230.2928621758033 230.2928621758033" height="230.2928621758033" width="230.2928621758033"><g transform="matrix(1,0,0,1,62.018143899059275,96.07309058634999)"><svg viewBox="0 0 106.25657437768474 38.146681003103325" height="38.146681003103325" width="106.25657437768474"><g><svg xmlns="http://www.w3.org/2000/svg" viewBox="32.944000244140625 175.9999237060547 445.6759948730469 160.0000762939453" x="0" y="0" height="38.146681003103325" width="106.25657437768474" class="icon-x-0" data-fill-palette-color="accent" id="x-0"><path d="M392 304h16V288a8 8 0 0 0-2.343-5.657L379.314 256H356.686L392 291.313Z" fill="#761111" data-fill-palette-color="accent"></path><path d="M328.411 280.3a5.765 5.765 0 0 1 7.589 5.47v12.468a5.765 5.765 0 0 1-7.589 5.47L314.12 298.94A57.414 57.414 0 0 0 304 296.56v-9.12a57.414 57.414 0 0 0 10.12-2.38ZM400 336a8 8 0 1 1 8-8A8.009 8.009 0 0 1 400 336ZM176 176h14.243l24.027 11.089-22.452 0.775ZM32.944 224l4.461-8.923L64 209.759v28.482l-26.595-5.318Zm43.211 56H62.13l14.4-24H95.355ZM216 336a8 8 0 1 1 8-8A8.009 8.009 0 0 1 216 336Zm1.721-31.932c-0.569-0.04-1.142-0.068-1.721-0.068s-1.152 0.028-1.721 0.068L211.627 280.2l9.224-4.305ZM174.226 280H155.473l62.857-40h41.609ZM440 264a8 8 0 0 1-16 0v-8h16Zm36.057-29.471A7.989 7.989 0 0 1 468.468 240H297.773l1.61-0.751A8 8 0 0 0 296 224H216a8 8 0 0 0-4.295 1.251L188.528 240H80V207.729l209.312-7.218a99.345 99.345 0 0 0 31.517-6.278l34.44-12.916a83.533 83.533 0 0 1 80.608 12.277L478.62 226.84Z" fill="#761111" data-fill-palette-color="accent"></path><rect x="304" y="256" width="16" height="16" fill="#761111" data-fill-palette-color="accent"></rect></svg></g></svg></g><path d="M7.924 69.12l33.87 10.916-2.163 6.71-25.875-8.339-0.104 8.813-5.456-1.758-0.503-15.625zM43.717 70.807v0c-0.942-0.611-1.503-1.425-1.684-2.44-0.171-1.017 0.053-2.003 0.673-2.956v0c0.63-0.971 1.443-1.582 2.438-1.834 1.005-0.254 1.978-0.075 2.919 0.536v0c0.924 0.6 1.475 1.403 1.654 2.409 0.169 1.008-0.066 2.003-0.704 2.985v0c-0.627 0.965-1.434 1.575-2.423 1.831-0.991 0.246-1.949 0.069-2.873-0.531zM46.819 47.869l-5.042 2.84-10.889-14.546 14.494-13.658 4.032 4.278-10.285 9.692 4.597 6.16c0.611-1.802 1.602-3.349 2.972-4.641v0c2.467-2.324 5.117-3.38 7.953-3.167 2.835 0.212 5.546 1.691 8.133 4.437v0c1.573 1.67 2.632 3.499 3.175 5.488 0.543 1.98 0.499 3.951-0.132 5.916-0.626 1.969-1.834 3.798-3.626 5.487v0c-1.563 1.473-3.311 2.521-5.243 3.144-1.938 0.628-3.835 0.735-5.693 0.32-1.862-0.42-3.507-1.342-4.934-2.766v0l5.077-4.785c1.12 0.975 2.285 1.459 3.494 1.45 1.214-0.013 2.341-0.51 3.382-1.49v0c1.162-1.095 1.663-2.353 1.503-3.774-0.16-1.43-0.959-2.909-2.399-4.437v0c-1.382-1.467-2.802-2.251-4.259-2.354-1.462-0.098-2.856 0.478-4.18 1.726v0c-1.218 1.148-1.906 2.4-2.065 3.757v0zM102.587 36.871l-4.336-6.396-12.368 3.429-0.392 7.707-7.509 2.082 3.257-37.776 6.541-1.814 22.306 30.689zM86.902 13.659l-0.698 14.001 8.558-2.372zM120.005 36.07l-10.999-0.588 1.895-35.482 10.926 0.584c3.12 0.167 5.871 1.019 8.254 2.556 2.39 1.531 4.205 3.633 5.445 6.304 1.24 2.664 1.773 5.643 1.597 8.937v0l-0.088 1.64c-0.176 3.294-1.011 6.189-2.506 8.686-1.488 2.497-3.506 4.387-6.054 5.668-2.548 1.282-5.371 1.847-8.47 1.695zM121.51 6.506l-3.614-0.193-1.265 23.69 3.541 0.189c2.855 0.153 5.088-0.667 6.699-2.46 1.611-1.785 2.526-4.415 2.747-7.888v0l0.1-1.88c0.193-3.607-0.41-6.38-1.807-8.319-1.391-1.939-3.524-2.985-6.401-3.139zM156.232 47.265l0.772-7.689-11.692-5.294-5.241 5.665-7.099-3.215 26.712-26.91 6.184 2.8-2.547 37.853zM159.069 19.395l-9.51 10.3 8.09 3.663zM207.361 44.321l-24.433 25.801-5.316-5.035 5.723-26.778-16.075 16.975-5.317-5.035 24.433-25.8 5.316 5.035-5.744 26.83 16.111-17.013zM191.757 92.657l5.729-5.185-5.122-11.769-7.686 0.688-3.11-7.146 37.862-2.046 2.709 6.224-27.276 26.37zM212.553 73.888l-13.961 1.261 3.543 8.143zM50.528 156.554l-33.87 10.916-2.162-6.711 25.875-8.339-5.062-7.215 5.456-1.759 9.532 12.391zM27.376 179.208v0c0.942-0.611 1.913-0.793 2.913-0.545 0.999 0.258 1.808 0.863 2.427 1.817v0c0.63 0.971 0.858 1.962 0.684 2.973-0.177 1.021-0.736 1.837-1.678 2.449v0c-0.924 0.6-1.882 0.777-2.873 0.531-0.989-0.256-1.803-0.875-2.441-1.858v0c-0.627-0.965-0.855-1.951-0.686-2.959 0.179-1.006 0.73-1.808 1.654-2.408zM50.774 187.338l-3.134-4.864 13.874-11.734 14.495 13.659-4.032 4.278-10.284-9.692-5.877 4.955c1.835 0.503 3.438 1.4 4.809 2.691v0c2.467 2.324 3.678 4.908 3.634 7.751-0.044 2.843-1.359 5.637-3.947 8.383v0c-1.573 1.67-3.337 2.834-5.291 3.494-1.944 0.66-3.915 0.733-5.913 0.22-2.003-0.508-3.9-1.606-5.692-3.294v0c-1.563-1.473-2.713-3.156-3.45-5.048-0.742-1.897-0.961-3.785-0.657-5.663 0.309-1.884 1.132-3.581 2.469-5.091v0l5.077 4.785c-0.907 1.176-1.321 2.368-1.24 3.574 0.085 1.211 0.648 2.307 1.688 3.287v0c1.162 1.095 2.448 1.521 3.856 1.277 1.418-0.244 2.847-1.13 4.287-2.658v0c1.382-1.467 2.081-2.93 2.097-4.391 0.011-1.465-0.646-2.822-1.971-4.071v0c-1.218-1.148-2.509-1.761-3.872-1.838v0zM95.53 227.982l-0.422-7.716-12.368-3.429-4.305 6.405-7.509-2.082 22.245-30.706 6.542 1.814 3.317 37.793zM94.039 200.008l-7.809 11.642 8.558 2.373zM121.413 229.705l-10.999 0.588-1.895-35.483 10.926-0.583c3.12-0.167 5.946 0.388 8.479 1.663 2.54 1.268 4.569 3.164 6.086 5.687 1.517 2.517 2.364 5.422 2.54 8.716v0l0.087 1.64c0.176 3.294-0.346 6.262-1.567 8.904-1.214 2.642-3.019 4.735-5.415 6.281-2.397 1.546-5.144 2.408-8.242 2.587zM119.761 200.149l-3.614 0.193 1.265 23.69 3.541-0.189c2.855-0.153 4.988-1.206 6.399-3.16 1.411-1.947 2.042-4.659 1.891-8.135v0l-0.1-1.88c-0.193-3.607-1.087-6.3-2.684-8.08-1.589-1.78-3.822-2.593-6.698-2.439zM167.125 216.197l-5.269-5.652-11.691 5.294 0.8 7.676-7.099 3.214-2.604-37.827 6.184-2.801 26.769 26.885zM148.052 195.679l1.467 13.942 8.09-3.663zM176.654 162.658l24.432 25.8-5.316 5.035-26.427-7.172 16.075 16.975-5.316 5.034-24.433-25.8 5.316-5.034 26.479 7.195-16.111-17.013zM215.972 157.286l-7.699-0.659-5.122 11.769 5.742 5.156-3.11 7.146-27.301-26.313 2.709-6.224 37.886 1.989zM188.063 154.859l10.439 9.357 3.544-8.143zM7.233 119.702c0-7.507 6.086-13.593 13.593-13.592 7.507 0 13.593 6.086 13.593 13.592 0 7.507-6.086 13.593-13.593 13.593-7.507 0-13.593-6.086-13.593-13.593zM195.874 119.702c0-7.507 6.086-13.593 13.593-13.592 7.507 0 13.593 6.086 13.593 13.592 0 7.507-6.086 13.593-13.593 13.593-7.507 0-13.593-6.086-13.593-13.593z" fill="#761111" data-fill-palette-color="accent"></path></svg></g></svg></g><g></g></svg></g></svg></g></svg></g></svg><rect width="395.52" height="247.2" fill="none" stroke="none" visibility="hidden"></rect></g></svg></g></svg>